<svg width="81" height="100" viewBox="0 0 81 100" fill="none" xmlns="http://www.w3.org/2000/svg">
<g clip-path="url(#clip0_2044_173)">
<path d="M81 19.902L72.8763 0H63.0033L66.8692 10.767L63.0033 17.4438H53.0709L49.2049 10.767L53.0709 0H43.1978L35.0756 19.902L46.5982 39.8039H50.2719V78.2656C50.2719 82.1972 53.4685 85.3835 57.4111 85.3835H58.6645C62.6071 85.3835 65.8037 82.1958 65.8037 78.2656V39.8039H69.4788L81.0015 19.902H81Z" fill="#00BBA0"/>
<path d="M57.8303 32.4451V31.5729C57.8303 27.6023 54.0164 24.3843 49.3104 24.3843H8.51985C3.81391 24.3843 0 27.6023 0 31.5729V32.4451C0 36.4157 3.81391 39.6337 8.51985 39.6337C3.81391 39.6337 0 42.8531 0 46.8237V47.696C0 51.6666 3.81391 54.8846 8.51985 54.8846C3.81391 54.8846 0 58.104 0 62.0731V62.9454C0 66.916 3.81391 70.134 8.51985 70.134C3.81391 70.1354 0 73.3534 0 77.324V78.1963C0 82.1669 3.81391 85.3849 8.51985 85.3849H49.3119C54.0164 85.3849 57.8317 82.1669 57.8317 78.1963V77.324C57.8317 73.3534 54.0178 70.1354 49.3119 70.1354C54.0164 70.1354 57.8317 66.9174 57.8317 62.9468V62.0746C57.8317 58.104 54.0178 54.886 49.3119 54.886C54.0164 54.886 57.8317 51.668 57.8317 47.6974V46.8252C57.8317 42.8546 54.0178 39.6366 49.3119 39.6366C54.0164 39.6366 57.8317 36.4186 57.8317 32.448L57.8303 32.4451Z" fill="#FF507E"/>
<path d="M36.6297 54.1696C39.3764 54.1696 41.6031 50.511 41.6031 45.9978C41.6031 41.4846 39.3764 37.8259 36.6297 37.8259C33.8829 37.8259 31.6562 41.4846 31.6562 45.9978C31.6562 50.511 33.8829 54.1696 36.6297 54.1696Z" fill="white"/>
<mask id="mask0_2044_173" style="mask-type:luminance" maskUnits="userSpaceOnUse" x="31" y="37" width="11" height="18">
<path d="M36.6297 54.1696C39.3764 54.1696 41.6031 50.511 41.6031 45.9978C41.6031 41.4846 39.3764 37.8259 36.6297 37.8259C33.8829 37.8259 31.6562 41.4846 31.6562 45.9978C31.6562 50.511 33.8829 54.1696 36.6297 54.1696Z" fill="white"/>
</mask>
<g mask="url(#mask0_2044_173)">
<path d="M39.5053 54.1696C42.252 54.1696 44.4787 50.511 44.4787 45.9978C44.4787 41.4846 42.252 37.8259 39.5053 37.8259C36.7585 37.8259 34.5319 41.4846 34.5319 45.9978C34.5319 50.511 36.7585 54.1696 39.5053 54.1696Z" fill="#231F20"/>
</g>
<path d="M21.2006 54.1696C23.9473 54.1696 26.174 50.511 26.174 45.9978C26.174 41.4846 23.9473 37.8259 21.2006 37.8259C18.4538 37.8259 16.2272 41.4846 16.2272 45.9978C16.2272 50.511 18.4538 54.1696 21.2006 54.1696Z" fill="white"/>
<mask id="mask1_2044_173" style="mask-type:luminance" maskUnits="userSpaceOnUse" x="16" y="37" width="11" height="18">
<path d="M21.2006 54.1696C23.9473 54.1696 26.174 50.511 26.174 45.9978C26.174 41.4846 23.9473 37.8259 21.2006 37.8259C18.4538 37.8259 16.2272 41.4846 16.2272 45.9978C16.2272 50.511 18.4538 54.1696 21.2006 54.1696Z" fill="white"/>
</mask>
<g mask="url(#mask1_2044_173)">
<path d="M24.0747 54.1696C26.8215 54.1696 29.0481 50.511 29.0481 45.9978C29.0481 41.4846 26.8215 37.8259 24.0747 37.8259C21.328 37.8259 19.1013 41.4846 19.1013 45.9978C19.1013 50.511 21.328 54.1696 24.0747 54.1696Z" fill="#231F20"/>
</g>
<path d="M14.9463 85.385V91.3856H10.3878C8.00231 91.3856 6.06934 93.3132 6.06934 95.6921C6.06934 98.071 8.00231 99.9986 10.3878 99.9986H27.9205V85.385H14.9463Z" fill="#FFA128"/>
<path d="M33.5503 85.385V91.3856H28.9918C26.6063 91.3856 24.6733 93.3132 24.6733 95.6921C24.6733 98.071 26.6063 99.9986 28.9918 99.9986H46.5245V85.385H33.5503Z" fill="#4CAADF"/>
</g>
<defs>
<clipPath id="clip0_2044_173">
<rect width="81" height="100" fill="white"/>
</clipPath>
</defs>
</svg>
